<svg xmlns="http://www.w3.org/2000/svg" xmlns:xlink="http://www.w3.org/1999/xlink" width="500" zoomAndPan="magnify" viewBox="0 0 375 374.999991" height="500" preserveAspectRatio="xMidYMid meet" version="1.0"><defs><g/><clipPath id="2cf71b00d5"><path d="M 70.792969 21.296875 L 304.207031 21.296875 L 304.207031 330 L 70.792969 330 Z M 70.792969 21.296875 " clip-rule="nonzero"/></clipPath><clipPath id="65e7ad0630"><path d="M 88.042969 21.296875 L 286.957031 21.296875 C 291.53125 21.296875 295.917969 23.113281 299.152344 26.347656 C 302.386719 29.585938 304.207031 33.972656 304.207031 38.546875 L 304.207031 312.25 C 304.207031 316.828125 302.386719 321.214844 299.152344 324.449219 C 295.917969 327.683594 291.53125 329.5 286.957031 329.5 L 88.042969 329.5 C 83.46875 329.5 79.082031 327.683594 75.847656 324.449219 C 72.613281 321.214844 70.792969 316.828125 70.792969 312.25 L 70.792969 38.546875 C 70.792969 33.972656 72.613281 29.585938 75.847656 26.347656 C 79.082031 23.113281 83.46875 21.296875 88.042969 21.296875 Z M 88.042969 21.296875 " clip-rule="nonzero"/></clipPath></defs><g clip-path="url(#2cf71b00d5)"><g clip-path="url(#65e7ad0630)"><path fill="#35150a" d="M 70.792969 21.296875 L 304.207031 21.296875 L 304.207031 329.472656 L 70.792969 329.472656 Z M 70.792969 21.296875 " fill-opacity="1" fill-rule="nonzero"/></g></g><g fill="#d7891a" fill-opacity="1"><g transform="translate(163.922861, 332.650261)"><g><path d="M 93.8125 -157.953125 C 97.769531 -159.535156 99.832031 -160.328125 100 -160.328125 C 100.15625 -160.328125 102.289062 -160.007812 106.40625 -159.375 C 108.78125 -158.894531 110.484375 -158.414062 111.515625 -157.9375 C 112.546875 -157.46875 113.296875 -156.757812 113.765625 -155.8125 C 114.398438 -154.539062 114.71875 -152.878906 114.71875 -150.828125 C 114.71875 -143.703125 111.078125 -131.664062 103.796875 -114.71875 C 100.148438 -106.320312 96.585938 -97.296875 93.109375 -87.640625 C 88.515625 -75.609375 85.664062 -68.40625 84.5625 -66.03125 C 82.8125 -61.4375 81.144531 -55.816406 79.5625 -49.171875 C 77.820312 -41.878906 76.160156 -36.570312 74.578125 -33.25 C 73.628906 -30.875 72.71875 -29.25 71.84375 -28.375 C 70.976562 -27.507812 69.59375 -26.679688 67.6875 -25.890625 C 65.789062 -25.097656 64.207031 -24.703125 62.9375 -24.703125 C 62.300781 -24.703125 61.75 -24.78125 61.28125 -24.9375 C 59.851562 -25.726562 59.140625 -26.363281 59.140625 -26.84375 C 59.140625 -27.3125 58.898438 -27.546875 58.421875 -27.546875 C 58.265625 -27.546875 57.953125 -27.46875 57.484375 -27.3125 C 57.316406 -27.3125 57.15625 -27.3125 57 -27.3125 C 55.738281 -27.3125 53.757812 -28.617188 51.0625 -31.234375 C 48.375 -33.847656 47.03125 -35.867188 47.03125 -37.296875 C 47.03125 -38.878906 46.160156 -41.488281 44.421875 -45.125 C 42.835938 -48.613281 41.566406 -51.703125 40.609375 -54.390625 C 39.984375 -56.285156 38.796875 -59.453125 37.046875 -63.890625 C 35.628906 -67.535156 34.921875 -69.910156 34.921875 -71.015625 C 34.921875 -71.015625 34.921875 -71.09375 34.921875 -71.25 C 34.921875 -71.414062 34.921875 -71.65625 34.921875 -71.96875 C 34.921875 -73.238281 34.207031 -75.296875 32.78125 -78.140625 C 30.875 -81.628906 27.707031 -90.894531 23.28125 -105.9375 C 17.570312 -125.09375 13.613281 -137.046875 11.40625 -141.796875 C 9.34375 -146.066406 8.3125 -148.597656 8.3125 -149.390625 C 8.3125 -151.140625 9.929688 -152.445312 13.171875 -153.3125 C 16.421875 -154.1875 19.628906 -154.625 22.796875 -154.625 C 23.910156 -154.625 25.851562 -154.503906 28.625 -154.265625 C 31.394531 -154.023438 33.648438 -153.191406 35.390625 -151.765625 C 37.453125 -149.867188 42.914062 -134.828125 51.78125 -106.640625 C 56.375 -91.753906 59.144531 -83.757812 60.09375 -82.65625 C 60.5625 -82.175781 60.796875 -81.859375 60.796875 -81.703125 C 61.117188 -81.703125 61.359375 -81.941406 61.515625 -82.421875 C 62.148438 -83.367188 63.097656 -85.976562 64.359375 -90.25 C 74.023438 -121.132812 80.046875 -139.503906 82.421875 -145.359375 C 84.640625 -150.585938 87.171875 -154.070312 90.015625 -155.8125 C 90.804688 -156.28125 92.070312 -156.992188 93.8125 -157.953125 Z M 93.8125 -157.953125 "/></g></g></g><g fill="#811002" fill-opacity="1"><g transform="translate(81.09826, 220.947323)"><g><path d="M 99.4375 -167.40625 C 103.632812 -169.082031 105.816406 -169.921875 105.984375 -169.921875 C 106.148438 -169.921875 108.414062 -169.582031 112.78125 -168.90625 C 115.289062 -168.40625 117.09375 -167.898438 118.1875 -167.390625 C 119.28125 -166.890625 120.078125 -166.140625 120.578125 -165.140625 C 121.253906 -163.796875 121.59375 -162.03125 121.59375 -159.84375 C 121.59375 -152.289062 117.734375 -139.539062 110.015625 -121.59375 C 106.148438 -112.695312 102.375 -103.128906 98.6875 -92.890625 C 93.8125 -80.140625 90.789062 -72.503906 89.625 -69.984375 C 87.769531 -65.117188 86.003906 -59.160156 84.328125 -52.109375 C 82.484375 -44.390625 80.722656 -38.769531 79.046875 -35.25 C 78.035156 -32.726562 77.066406 -31.003906 76.140625 -30.078125 C 75.222656 -29.160156 73.757812 -28.28125 71.75 -27.4375 C 69.726562 -26.601562 68.046875 -26.1875 66.703125 -26.1875 C 66.035156 -26.1875 65.453125 -26.269531 64.953125 -26.4375 C 63.441406 -27.269531 62.6875 -27.941406 62.6875 -28.453125 C 62.6875 -28.953125 62.429688 -29.203125 61.921875 -29.203125 C 61.753906 -29.203125 61.421875 -29.117188 60.921875 -28.953125 C 60.753906 -28.953125 60.585938 -28.953125 60.421875 -28.953125 C 59.078125 -28.953125 56.976562 -30.332031 54.125 -33.09375 C 51.269531 -35.863281 49.84375 -38.003906 49.84375 -39.515625 C 49.84375 -41.203125 48.921875 -43.972656 47.078125 -47.828125 C 45.398438 -51.523438 44.054688 -54.796875 43.046875 -57.640625 C 42.378906 -59.660156 41.117188 -63.019531 39.265625 -67.71875 C 37.753906 -71.570312 37 -74.085938 37 -75.265625 C 37 -75.265625 37 -75.347656 37 -75.515625 C 37 -75.679688 37 -75.9375 37 -76.28125 C 37 -77.625 36.242188 -79.804688 34.734375 -82.828125 C 32.722656 -86.515625 29.367188 -96.332031 24.671875 -112.28125 C 18.628906 -132.582031 14.429688 -145.25 12.078125 -150.28125 C 9.898438 -154.8125 8.8125 -157.5 8.8125 -158.34375 C 8.8125 -160.1875 10.53125 -161.566406 13.96875 -162.484375 C 17.40625 -163.410156 20.804688 -163.875 24.171875 -163.875 C 25.335938 -163.875 27.390625 -163.75 30.328125 -163.5 C 33.265625 -163.25 35.660156 -162.367188 37.515625 -160.859375 C 39.691406 -158.847656 45.476562 -142.90625 54.875 -113.03125 C 59.738281 -97.25 62.675781 -88.773438 63.6875 -87.609375 C 64.1875 -87.097656 64.4375 -86.757812 64.4375 -86.59375 C 64.78125 -86.59375 65.035156 -86.847656 65.203125 -87.359375 C 65.867188 -88.359375 66.875 -91.125 68.21875 -95.65625 C 78.457031 -128.382812 84.835938 -147.851562 87.359375 -154.0625 C 89.703125 -159.601562 92.382812 -163.296875 95.40625 -165.140625 C 96.25 -165.640625 97.59375 -166.394531 99.4375 -167.40625 Z M 99.4375 -167.40625 "/></g></g></g></svg>